  0
SECTION
  2
HEADER
  9
$ANGBASE
  50
0.0
  9
$ANGDIR
  70
1
  9
$MEASUREMENT
  70
1
  0
ENDSEC
  0
SECTION
  2
TABLES
  0
TABLE
  2
LTYPE
  70
4
  0
LTYPE
  5
40F
  2
CONTINUOUS
  70
0
  3
Solid line
  72
65
  73
0
  40
0.0
  0
LTYPE
  5
410
  2
DASHDOT
 70
0
  3
Dash Dot ____ _ ____ _
 72
65
 73
4
 40
2.0
 49
1.25
 49
-0.25
 49
0.25
 49
-0.25
  0
LTYPE
  5
411
  2
DASHED
 70
0
  3
Dashed __ __ __ __ __
 72
65
 73
2
 40
0.75
 49
0.5
 49
-0.25
  0
LTYPE
  5
43B
  2
DOTTED
 70
0
  3
Dotted .  .  .  .
 72
65
 73
2
 40
0.2
 49
0.0
 49
-0.2
  0
ENDTAB
  0
TABLE
  2
STYLE
  70
4
  0
STYLE
  2
KICAD
  70
0
  40
0
  41
1
  42
1
  50
0
  71
0
  3
isocp.shx
  0
STYLE
  2
KICADB
  70
0
  40
0
  41
1
  42
1
  50
0
  71
0
  3
isocp.shx
  0
STYLE
  2
KICADI
  70
0
  40
0
  41
1
  42
1
  50
15
  71
0
  3
isocp.shx
  0
STYLE
  2
KICADBI
  70
0
  40
0
  41
1
  42
1
  50
15
  71
0
  3
isocp.shx
  0
ENDTAB
  0
TABLE
  2
LAYER
  70
1
  0
LAYER
  2
BLACK
  70
0
  62
7
  6
CONTINUOUS
  0
ENDTAB
  0
ENDSEC
  0
SECTION
  2
ENTITIES
0
LINE
8
BLACK
6
CONTINUOUS
10
-86.5
20
-63.5
11
-74.5
21
-63.5
0
LINE
8
BLACK
6
CONTINUOUS
10
-74.5
20
-63.5
11
-74.5
21
-74.5
0
LINE
8
BLACK
6
CONTINUOUS
10
-74.5
20
-74.5
11
-86.5
21
-74.5
0
LINE
8
BLACK
6
CONTINUOUS
10
-86.5
20
-74.5
11
-86.5
21
-63.5
0
ARC
8
BLACK
10
-118
20
-2
40
2
50
90
51
180
0
ARC
8
BLACK
10
-2
20
-2
40
2
50
-0
51
90
0
ARC
8
BLACK
10
-2
20
-81
40
2
50
-90
51
-0
0
ARC
8
BLACK
10
-118
20
-81
40
2
50
-180
51
-90
0
LINE
8
BLACK
6
CONTINUOUS
10
-120
20
-8
11
-120
21
-2
0
LINE
8
BLACK
6
CONTINUOUS
10
-99
20
-19
11
-120
21
-19
0
LINE
8
BLACK
6
CONTINUOUS
10
-99
20
-8
11
-99
21
-19
0
LINE
8
BLACK
6
CONTINUOUS
10
-120
20
-8
11
-99
21
-8
0
LINE
8
BLACK
6
CONTINUOUS
10
-118
20
0
11
-2
21
0
0
LINE
8
BLACK
6
CONTINUOUS
10
-120
20
-81
11
-120
21
-19
0
LINE
8
BLACK
6
CONTINUOUS
10
-2
20
-83
11
-118
21
-83
0
LINE
8
BLACK
6
CONTINUOUS
10
0
20
-2
11
0
21
-81
0
LINE
8
BLACK
6
CONTINUOUS
10
-112.25
20
-18
11
-119.75
21
-18
0
LINE
8
BLACK
6
CONTINUOUS
10
-119.75
20
-18
11
-119.75
21
-9
0
LINE
8
BLACK
6
CONTINUOUS
10
-119.75
20
-9
11
-112.25
21
-9
0
LINE
8
BLACK
6
CONTINUOUS
10
-112.25
20
-9
11
-112.25
21
-18
0
LINE
8
BLACK
6
CONTINUOUS
10
-105
20
-19.75
11
-100.5
21
-19.75
0
LINE
8
BLACK
6
CONTINUOUS
10
-100.5
20
-19.75
11
-100.5
21
-16
0
LINE
8
BLACK
6
CONTINUOUS
10
-100.5
20
-16
11
-105
21
-16
0
LINE
8
BLACK
6
CONTINUOUS
10
-105
20
-16
11
-105
21
-19.75
0
LINE
8
BLACK
6
CONTINUOUS
10
-105
20
-7.25
11
-100.5
21
-7.25
0
LINE
8
BLACK
6
CONTINUOUS
10
-100.5
20
-7.25
11
-100.5
21
-11
0
LINE
8
BLACK
6
CONTINUOUS
10
-100.5
20
-11
11
-105
21
-11
0
LINE
8
BLACK
6
CONTINUOUS
10
-105
20
-11
11
-105
21
-7.25
0
LINE
8
BLACK
6
CONTINUOUS
10
-119.5
20
-23.5
11
-95
21
-23.5
0
LINE
8
BLACK
6
CONTINUOUS
10
-95
20
-23.5
11
-95
21
-3.5
0
LINE
8
BLACK
6
CONTINUOUS
10
-95
20
-3.5
11
-119.5
21
-3.5
0
LINE
8
BLACK
6
CONTINUOUS
10
-119.5
20
-3.5
11
-119.5
21
-23.5
0
CIRCLE
8
BLACK
10
-103.75
20
-13.5
40
1.25
0
LINE
8
BLACK
6
CONTINUOUS
10
-3.25
20
2
11
-8.75
21
2
0
LINE
8
BLACK
6
CONTINUOUS
10
-8.75
20
2
11
-8.75
21
0
0
LINE
8
BLACK
6
CONTINUOUS
10
-2.75
20
-13
11
-2.75
21
0
0
LINE
8
BLACK
6
CONTINUOUS
10
-2.75
20
0
11
-3.25
21
0
0
LINE
8
BLACK
6
CONTINUOUS
10
-9.25
20
-13
11
-2.75
21
-13
0
LINE
8
BLACK
6
CONTINUOUS
10
-8.75
20
0
11
-9.25
21
0
0
LINE
8
BLACK
6
CONTINUOUS
10
-3.25
20
0
11
-3.25
21
2
0
LINE
8
BLACK
6
CONTINUOUS
10
-9.25
20
0
11
-9.25
21
-13
0
LINE
8
BLACK
6
CONTINUOUS
10
-9
20
-34
11
0
21
-34
0
LINE
8
BLACK
6
CONTINUOUS
10
0
20
-34
11
0
21
-24
0
LINE
8
BLACK
6
CONTINUOUS
10
0
20
-24
11
-9
21
-24
0
LINE
8
BLACK
6
CONTINUOUS
10
-9
20
-24
11
-9
21
-34
0
CIRCLE
8
BLACK
10
-5.5
20
-19
40
1.1
0
CIRCLE
8
BLACK
10
-42
20
-3.5
40
1.1
0
CIRCLE
8
BLACK
10
-92
20
-4
40
1.1
0
CIRCLE
8
BLACK
10
-116.5
20
-79.5
40
1.1
0
CIRCLE
8
BLACK
10
-57.5
20
-79.5
40
1.1
0
CIRCLE
8
BLACK
10
-3.5
20
-79.5
40
1.1
0
LINE
8
BLACK
6
CONTINUOUS
10
-10.4
20
-62
11
-15.6
21
-62
0
LINE
8
BLACK
6
CONTINUOUS
10
-15.6
20
-62
11
-15.6
21
-64
0
LINE
8
BLACK
6
CONTINUOUS
10
-15.6
20
-64
11
-10.4
21
-64
0
LINE
8
BLACK
6
CONTINUOUS
10
-10.4
20
-64
11
-10.4
21
-62
0
LINE
8
BLACK
6
CONTINUOUS
10
-28.9
20
-57.5
11
-34.1
21
-57.5
0
LINE
8
BLACK
6
CONTINUOUS
10
-34.1
20
-57.5
11
-34.1
21
-59.5
0
LINE
8
BLACK
6
CONTINUOUS
10
-34.1
20
-59.5
11
-28.9
21
-59.5
0
LINE
8
BLACK
6
CONTINUOUS
10
-28.9
20
-59.5
11
-28.9
21
-57.5
0
LINE
8
BLACK
6
CONTINUOUS
10
-54.9
20
-56
11
-60.1
21
-56
0
LINE
8
BLACK
6
CONTINUOUS
10
-60.1
20
-56
11
-60.1
21
-58
0
LINE
8
BLACK
6
CONTINUOUS
10
-60.1
20
-58
11
-54.9
21
-58
0
LINE
8
BLACK
6
CONTINUOUS
10
-54.9
20
-58
11
-54.9
21
-56
0
LINE
8
BLACK
6
CONTINUOUS
10
-16.9
20
-58
11
-22.1
21
-58
0
LINE
8
BLACK
6
CONTINUOUS
10
-22.1
20
-58
11
-22.1
21
-60
0
LINE
8
BLACK
6
CONTINUOUS
10
-22.1
20
-60
11
-16.9
21
-60
0
LINE
8
BLACK
6
CONTINUOUS
10
-16.9
20
-60
11
-16.9
21
-58
0
LINE
8
BLACK
6
CONTINUOUS
10
-34.9
20
-56
11
-40.1
21
-56
0
LINE
8
BLACK
6
CONTINUOUS
10
-40.1
20
-56
11
-40.1
21
-58
0
LINE
8
BLACK
6
CONTINUOUS
10
-40.1
20
-58
11
-34.9
21
-58
0
LINE
8
BLACK
6
CONTINUOUS
10
-34.9
20
-58
11
-34.9
21
-56
0
LINE
8
BLACK
6
CONTINUOUS
10
-52.9
20
-51
11
-58.1
21
-51
0
LINE
8
BLACK
6
CONTINUOUS
10
-58.1
20
-51
11
-58.1
21
-53
0
LINE
8
BLACK
6
CONTINUOUS
10
-58.1
20
-53
11
-52.9
21
-53
0
LINE
8
BLACK
6
CONTINUOUS
10
-52.9
20
-53
11
-52.9
21
-51
0
LINE
8
BLACK
6
CONTINUOUS
10
-70.9
20
-56
11
-76.1
21
-56
0
LINE
8
BLACK
6
CONTINUOUS
10
-76.1
20
-56
11
-76.1
21
-58
0
LINE
8
BLACK
6
CONTINUOUS
10
-76.1
20
-58
11
-70.9
21
-58
0
LINE
8
BLACK
6
CONTINUOUS
10
-70.9
20
-58
11
-70.9
21
-56
0
LINE
8
BLACK
6
CONTINUOUS
10
-88.9
20
-58
11
-94.1
21
-58
0
LINE
8
BLACK
6
CONTINUOUS
10
-94.1
20
-58
11
-94.1
21
-60
0
LINE
8
BLACK
6
CONTINUOUS
10
-94.1
20
-60
11
-88.9
21
-60
0
LINE
8
BLACK
6
CONTINUOUS
10
-88.9
20
-60
11
-88.9
21
-58
0
LINE
8
BLACK
6
CONTINUOUS
10
-106.9
20
-58
11
-112.1
21
-58
0
LINE
8
BLACK
6
CONTINUOUS
10
-112.1
20
-58
11
-112.1
21
-60
0
LINE
8
BLACK
6
CONTINUOUS
10
-112.1
20
-60
11
-106.9
21
-60
0
LINE
8
BLACK
6
CONTINUOUS
10
-106.9
20
-60
11
-106.9
21
-58
0
LINE
8
BLACK
6
CONTINUOUS
10
-16.9
20
-41
11
-22.1
21
-41
0
LINE
8
BLACK
6
CONTINUOUS
10
-22.1
20
-41
11
-22.1
21
-43
0
LINE
8
BLACK
6
CONTINUOUS
10
-22.1
20
-43
11
-16.9
21
-43
0
LINE
8
BLACK
6
CONTINUOUS
10
-16.9
20
-43
11
-16.9
21
-41
0
LINE
8
BLACK
6
CONTINUOUS
10
-34.95
20
-39
11
-40.15
21
-39
0
LINE
8
BLACK
6
CONTINUOUS
10
-40.15
20
-39
11
-40.15
21
-41
0
LINE
8
BLACK
6
CONTINUOUS
10
-40.15
20
-41
11
-34.95
21
-41
0
LINE
8
BLACK
6
CONTINUOUS
10
-34.95
20
-41
11
-34.95
21
-39
0
LINE
8
BLACK
6
CONTINUOUS
10
-52.9
20
-34
11
-58.1
21
-34
0
LINE
8
BLACK
6
CONTINUOUS
10
-58.1
20
-34
11
-58.1
21
-36
0
LINE
8
BLACK
6
CONTINUOUS
10
-58.1
20
-36
11
-52.9
21
-36
0
LINE
8
BLACK
6
CONTINUOUS
10
-52.9
20
-36
11
-52.9
21
-34
0
LINE
8
BLACK
6
CONTINUOUS
10
-70.9
20
-39
11
-76.1
21
-39
0
LINE
8
BLACK
6
CONTINUOUS
10
-76.1
20
-39
11
-76.1
21
-41
0
LINE
8
BLACK
6
CONTINUOUS
10
-76.1
20
-41
11
-70.9
21
-41
0
LINE
8
BLACK
6
CONTINUOUS
10
-70.9
20
-41
11
-70.9
21
-39
0
LINE
8
BLACK
6
CONTINUOUS
10
-88.9
20
-41
11
-94.1
21
-41
0
LINE
8
BLACK
6
CONTINUOUS
10
-94.1
20
-41
11
-94.1
21
-43
0
LINE
8
BLACK
6
CONTINUOUS
10
-94.1
20
-43
11
-88.9
21
-43
0
LINE
8
BLACK
6
CONTINUOUS
10
-88.9
20
-43
11
-88.9
21
-41
0
LINE
8
BLACK
6
CONTINUOUS
10
-106.9
20
-41
11
-112.1
21
-41
0
LINE
8
BLACK
6
CONTINUOUS
10
-112.1
20
-41
11
-112.1
21
-43
0
LINE
8
BLACK
6
CONTINUOUS
10
-112.1
20
-43
11
-106.9
21
-43
0
LINE
8
BLACK
6
CONTINUOUS
10
-106.9
20
-43
11
-106.9
21
-41
0
LINE
8
BLACK
6
CONTINUOUS
10
-106.9
20
-41
11
-112.1
21
-41
0
LINE
8
BLACK
6
CONTINUOUS
10
-112.1
20
-41
11
-112.1
21
-43
0
LINE
8
BLACK
6
CONTINUOUS
10
-112.1
20
-43
11
-106.9
21
-43
0
LINE
8
BLACK
6
CONTINUOUS
10
-106.9
20
-43
11
-106.9
21
-41
0
LINE
8
BLACK
6
CONTINUOUS
10
-16.9
20
-24
11
-22.1
21
-24
0
LINE
8
BLACK
6
CONTINUOUS
10
-22.1
20
-24
11
-22.1
21
-26
0
LINE
8
BLACK
6
CONTINUOUS
10
-22.1
20
-26
11
-16.9
21
-26
0
LINE
8
BLACK
6
CONTINUOUS
10
-16.9
20
-26
11
-16.9
21
-24
0
LINE
8
BLACK
6
CONTINUOUS
10
-34.9
20
-22
11
-40.1
21
-22
0
LINE
8
BLACK
6
CONTINUOUS
10
-40.1
20
-22
11
-40.1
21
-24
0
LINE
8
BLACK
6
CONTINUOUS
10
-40.1
20
-24
11
-34.9
21
-24
0
LINE
8
BLACK
6
CONTINUOUS
10
-34.9
20
-24
11
-34.9
21
-22
0
LINE
8
BLACK
6
CONTINUOUS
10
-52.9
20
-17
11
-58.1
21
-17
0
LINE
8
BLACK
6
CONTINUOUS
10
-58.1
20
-17
11
-58.1
21
-19
0
LINE
8
BLACK
6
CONTINUOUS
10
-58.1
20
-19
11
-52.9
21
-19
0
LINE
8
BLACK
6
CONTINUOUS
10
-52.9
20
-19
11
-52.9
21
-17
0
LINE
8
BLACK
6
CONTINUOUS
10
-70.9
20
-22
11
-76.1
21
-22
0
LINE
8
BLACK
6
CONTINUOUS
10
-76.1
20
-22
11
-76.1
21
-24
0
LINE
8
BLACK
6
CONTINUOUS
10
-76.1
20
-24
11
-70.9
21
-24
0
LINE
8
BLACK
6
CONTINUOUS
10
-70.9
20
-24
11
-70.9
21
-22
0
LINE
8
BLACK
6
CONTINUOUS
10
-98.4
20
-26.6
11
-98.4
21
-40.4
0
LINE
8
BLACK
6
CONTINUOUS
10
-84.6
20
-40.4
11
-84.6
21
-26.6
0
LINE
8
BLACK
6
CONTINUOUS
10
-98.9
20
-26.6
11
-84.1
21
-26.6
0
LINE
8
BLACK
6
CONTINUOUS
10
-84.1
20
-26.6
11
-84.1
21
-40.4
0
LINE
8
BLACK
6
CONTINUOUS
10
-84.1
20
-40.4
11
-98.9
21
-40.4
0
LINE
8
BLACK
6
CONTINUOUS
10
-98.9
20
-40.4
11
-98.9
21
-26.6
0
LINE
8
BLACK
6
CONTINUOUS
10
-43.597
20
-59.0067
11
-45.9933
21
-72.597
0
LINE
8
BLACK
6
CONTINUOUS
10
-32.403
20
-74.9933
11
-30.0067
21
-61.403
0
LINE
8
BLACK
6
CONTINUOUS
10
-44.0894
20
-58.9198
11
-29.5142
21
-61.4898
0
LINE
8
BLACK
6
CONTINUOUS
10
-29.5142
20
-61.4898
11
-31.9106
21
-75.0802
0
LINE
8
BLACK
6
CONTINUOUS
10
-31.9106
20
-75.0802
11
-46.4857
21
-72.5102
0
LINE
8
BLACK
6
CONTINUOUS
10
-46.4857
20
-72.5102
11
-44.0894
21
-58.9198
0
LINE
8
BLACK
6
CONTINUOUS
10
-116.4
20
-43.6
11
-116.4
21
-57.4
0
LINE
8
BLACK
6
CONTINUOUS
10
-102.6
20
-57.4
11
-102.6
21
-43.6
0
LINE
8
BLACK
6
CONTINUOUS
10
-116.9
20
-43.6
11
-102.1
21
-43.6
0
LINE
8
BLACK
6
CONTINUOUS
10
-102.1
20
-43.6
11
-102.1
21
-57.4
0
LINE
8
BLACK
6
CONTINUOUS
10
-102.1
20
-57.4
11
-116.9
21
-57.4
0
LINE
8
BLACK
6
CONTINUOUS
10
-116.9
20
-57.4
11
-116.9
21
-43.6
0
LINE
8
BLACK
6
CONTINUOUS
10
-98.4
20
-43.6
11
-98.4
21
-57.4
0
LINE
8
BLACK
6
CONTINUOUS
10
-84.6
20
-57.4
11
-84.6
21
-43.6
0
LINE
8
BLACK
6
CONTINUOUS
10
-98.9
20
-43.6
11
-84.1
21
-43.6
0
LINE
8
BLACK
6
CONTINUOUS
10
-84.1
20
-43.6
11
-84.1
21
-57.4
0
LINE
8
BLACK
6
CONTINUOUS
10
-84.1
20
-57.4
11
-98.9
21
-57.4
0
LINE
8
BLACK
6
CONTINUOUS
10
-98.9
20
-57.4
11
-98.9
21
-43.6
0
LINE
8
BLACK
6
CONTINUOUS
10
-44.4
20
-7.6
11
-44.4
21
-21.4
0
LINE
8
BLACK
6
CONTINUOUS
10
-30.6
20
-21.4
11
-30.6
21
-7.6
0
LINE
8
BLACK
6
CONTINUOUS
10
-44.9
20
-7.6
11
-30.1
21
-7.6
0
LINE
8
BLACK
6
CONTINUOUS
10
-30.1
20
-7.6
11
-30.1
21
-21.4
0
LINE
8
BLACK
6
CONTINUOUS
10
-30.1
20
-21.4
11
-44.9
21
-21.4
0
LINE
8
BLACK
6
CONTINUOUS
10
-44.9
20
-21.4
11
-44.9
21
-7.6
0
LINE
8
BLACK
6
CONTINUOUS
10
-80.4
20
-7.6
11
-80.4
21
-21.4
0
LINE
8
BLACK
6
CONTINUOUS
10
-66.6
20
-21.4
11
-66.6
21
-7.6
0
LINE
8
BLACK
6
CONTINUOUS
10
-80.9
20
-7.6
11
-66.1
21
-7.6
0
LINE
8
BLACK
6
CONTINUOUS
10
-66.1
20
-7.6
11
-66.1
21
-21.4
0
LINE
8
BLACK
6
CONTINUOUS
10
-66.1
20
-21.4
11
-80.9
21
-21.4
0
LINE
8
BLACK
6
CONTINUOUS
10
-80.9
20
-21.4
11
-80.9
21
-7.6
0
LINE
8
BLACK
6
CONTINUOUS
10
-62.4
20
-36.6
11
-62.4
21
-50.4
0
LINE
8
BLACK
6
CONTINUOUS
10
-48.6
20
-50.4
11
-48.6
21
-36.6
0
LINE
8
BLACK
6
CONTINUOUS
10
-62.9
20
-36.6
11
-48.1
21
-36.6
0
LINE
8
BLACK
6
CONTINUOUS
10
-48.1
20
-36.6
11
-48.1
21
-50.4
0
LINE
8
BLACK
6
CONTINUOUS
10
-48.1
20
-50.4
11
-62.9
21
-50.4
0
LINE
8
BLACK
6
CONTINUOUS
10
-62.9
20
-50.4
11
-62.9
21
-36.6
0
LINE
8
BLACK
6
CONTINUOUS
10
-62.4
20
-2.6
11
-62.4
21
-16.4
0
LINE
8
BLACK
6
CONTINUOUS
10
-48.6
20
-16.4
11
-48.6
21
-2.6
0
LINE
8
BLACK
6
CONTINUOUS
10
-62.9
20
-2.6
11
-48.1
21
-2.6
0
LINE
8
BLACK
6
CONTINUOUS
10
-48.1
20
-2.6
11
-48.1
21
-16.4
0
LINE
8
BLACK
6
CONTINUOUS
10
-48.1
20
-16.4
11
-62.9
21
-16.4
0
LINE
8
BLACK
6
CONTINUOUS
10
-62.9
20
-16.4
11
-62.9
21
-2.6
0
LINE
8
BLACK
6
CONTINUOUS
10
-26.4
20
-43.6
11
-26.4
21
-57.4
0
LINE
8
BLACK
6
CONTINUOUS
10
-12.6
20
-57.4
11
-12.6
21
-43.6
0
LINE
8
BLACK
6
CONTINUOUS
10
-26.9
20
-43.6
11
-12.1
21
-43.6
0
LINE
8
BLACK
6
CONTINUOUS
10
-12.1
20
-43.6
11
-12.1
21
-57.4
0
LINE
8
BLACK
6
CONTINUOUS
10
-12.1
20
-57.4
11
-26.9
21
-57.4
0
LINE
8
BLACK
6
CONTINUOUS
10
-26.9
20
-57.4
11
-26.9
21
-43.6
0
LINE
8
BLACK
6
CONTINUOUS
10
-116.4
20
-26.6
11
-116.4
21
-40.4
0
LINE
8
BLACK
6
CONTINUOUS
10
-102.6
20
-40.4
11
-102.6
21
-26.6
0
LINE
8
BLACK
6
CONTINUOUS
10
-116.9
20
-26.6
11
-102.1
21
-26.6
0
LINE
8
BLACK
6
CONTINUOUS
10
-102.1
20
-26.6
11
-102.1
21
-40.4
0
LINE
8
BLACK
6
CONTINUOUS
10
-102.1
20
-40.4
11
-116.9
21
-40.4
0
LINE
8
BLACK
6
CONTINUOUS
10
-116.9
20
-40.4
11
-116.9
21
-26.6
0
LINE
8
BLACK
6
CONTINUOUS
10
-44.4
20
-41.6
11
-44.4
21
-55.4
0
LINE
8
BLACK
6
CONTINUOUS
10
-30.6
20
-55.4
11
-30.6
21
-41.6
0
LINE
8
BLACK
6
CONTINUOUS
10
-44.9
20
-41.6
11
-30.1
21
-41.6
0
LINE
8
BLACK
6
CONTINUOUS
10
-30.1
20
-41.6
11
-30.1
21
-55.4
0
LINE
8
BLACK
6
CONTINUOUS
10
-30.1
20
-55.4
11
-44.9
21
-55.4
0
LINE
8
BLACK
6
CONTINUOUS
10
-44.9
20
-55.4
11
-44.9
21
-41.6
0
LINE
8
BLACK
6
CONTINUOUS
10
-44.4
20
-24.6
11
-44.4
21
-38.4
0
LINE
8
BLACK
6
CONTINUOUS
10
-30.6
20
-38.4
11
-30.6
21
-24.6
0
LINE
8
BLACK
6
CONTINUOUS
10
-44.9
20
-24.6
11
-30.1
21
-24.6
0
LINE
8
BLACK
6
CONTINUOUS
10
-30.1
20
-24.6
11
-30.1
21
-38.4
0
LINE
8
BLACK
6
CONTINUOUS
10
-30.1
20
-38.4
11
-44.9
21
-38.4
0
LINE
8
BLACK
6
CONTINUOUS
10
-44.9
20
-38.4
11
-44.9
21
-24.6
0
LINE
8
BLACK
6
CONTINUOUS
10
-23.1239
20
-63.1562
11
-27.8438
21
-76.1239
0
LINE
8
BLACK
6
CONTINUOUS
10
-14.8761
20
-80.8438
11
-10.1562
21
-67.8761
0
LINE
8
BLACK
6
CONTINUOUS
10
-23.5938
20
-62.9852
11
-9.68634
21
-68.0471
0
LINE
8
BLACK
6
CONTINUOUS
10
-9.68634
20
-68.0471
11
-14.4062
21
-81.0148
0
LINE
8
BLACK
6
CONTINUOUS
10
-14.4062
20
-81.0148
11
-28.3137
21
-75.9529
0
LINE
8
BLACK
6
CONTINUOUS
10
-28.3137
20
-75.9529
11
-23.5938
21
-62.9852
0
LINE
8
BLACK
6
CONTINUOUS
10
-26.4
20
-9.6
11
-26.4
21
-23.4
0
LINE
8
BLACK
6
CONTINUOUS
10
-12.6
20
-23.4
11
-12.6
21
-9.6
0
LINE
8
BLACK
6
CONTINUOUS
10
-26.9
20
-9.6
11
-12.1
21
-9.6
0
LINE
8
BLACK
6
CONTINUOUS
10
-12.1
20
-9.6
11
-12.1
21
-23.4
0
LINE
8
BLACK
6
CONTINUOUS
10
-12.1
20
-23.4
11
-26.9
21
-23.4
0
LINE
8
BLACK
6
CONTINUOUS
10
-26.9
20
-23.4
11
-26.9
21
-9.6
0
LINE
8
BLACK
6
CONTINUOUS
10
-64.4
20
-58.6
11
-64.4
21
-72.4
0
LINE
8
BLACK
6
CONTINUOUS
10
-50.6
20
-72.4
11
-50.6
21
-58.6
0
LINE
8
BLACK
6
CONTINUOUS
10
-64.9
20
-58.6
11
-50.1
21
-58.6
0
LINE
8
BLACK
6
CONTINUOUS
10
-50.1
20
-58.6
11
-50.1
21
-72.4
0
LINE
8
BLACK
6
CONTINUOUS
10
-50.1
20
-72.4
11
-64.9
21
-72.4
0
LINE
8
BLACK
6
CONTINUOUS
10
-64.9
20
-72.4
11
-64.9
21
-58.6
0
LINE
8
BLACK
6
CONTINUOUS
10
-26.4
20
-26.6
11
-26.4
21
-40.4
0
LINE
8
BLACK
6
CONTINUOUS
10
-12.6
20
-40.4
11
-12.6
21
-26.6
0
LINE
8
BLACK
6
CONTINUOUS
10
-26.9
20
-26.6
11
-12.1
21
-26.6
0
LINE
8
BLACK
6
CONTINUOUS
10
-12.1
20
-26.6
11
-12.1
21
-40.4
0
LINE
8
BLACK
6
CONTINUOUS
10
-12.1
20
-40.4
11
-26.9
21
-40.4
0
LINE
8
BLACK
6
CONTINUOUS
10
-26.9
20
-40.4
11
-26.9
21
-26.6
0
LINE
8
BLACK
6
CONTINUOUS
10
-80.4
20
-41.6
11
-80.4
21
-55.4
0
LINE
8
BLACK
6
CONTINUOUS
10
-66.6
20
-55.4
11
-66.6
21
-41.6
0
LINE
8
BLACK
6
CONTINUOUS
10
-80.9
20
-41.6
11
-66.1
21
-41.6
0
LINE
8
BLACK
6
CONTINUOUS
10
-66.1
20
-41.6
11
-66.1
21
-55.4
0
LINE
8
BLACK
6
CONTINUOUS
10
-66.1
20
-55.4
11
-80.9
21
-55.4
0
LINE
8
BLACK
6
CONTINUOUS
10
-80.9
20
-55.4
11
-80.9
21
-41.6
0
LINE
8
BLACK
6
CONTINUOUS
10
-80.4
20
-24.6
11
-80.4
21
-38.4
0
LINE
8
BLACK
6
CONTINUOUS
10
-66.6
20
-38.4
11
-66.6
21
-24.6
0
LINE
8
BLACK
6
CONTINUOUS
10
-80.9
20
-24.6
11
-66.1
21
-24.6
0
LINE
8
BLACK
6
CONTINUOUS
10
-66.1
20
-24.6
11
-66.1
21
-38.4
0
LINE
8
BLACK
6
CONTINUOUS
10
-66.1
20
-38.4
11
-80.9
21
-38.4
0
LINE
8
BLACK
6
CONTINUOUS
10
-80.9
20
-38.4
11
-80.9
21
-24.6
0
LINE
8
BLACK
6
CONTINUOUS
10
-62.4
20
-19.6
11
-62.4
21
-33.4
0
LINE
8
BLACK
6
CONTINUOUS
10
-48.6
20
-33.4
11
-48.6
21
-19.6
0
LINE
8
BLACK
6
CONTINUOUS
10
-62.9
20
-19.6
11
-48.1
21
-19.6
0
LINE
8
BLACK
6
CONTINUOUS
10
-48.1
20
-19.6
11
-48.1
21
-33.4
0
LINE
8
BLACK
6
CONTINUOUS
10
-48.1
20
-33.4
11
-62.9
21
-33.4
0
LINE
8
BLACK
6
CONTINUOUS
10
-62.9
20
-33.4
11
-62.9
21
-19.6
  0
ENDSEC
  0
EOF
